<svg width="28" height="28" viewBox="0 0 28 28" fill="none" xmlns="http://www.w3.org/2000/svg">
<path d="M16.25 17.375C16.5688 17.375 16.8455 17.258 17.0802 17.024C17.315 16.79 17.432 16.5132 17.4313 16.1937C17.4305 15.8742 17.3135 15.5979 17.0802 15.3646C16.847 15.1314 16.5702 15.014 16.25 15.0125C15.9298 15.011 15.6534 15.1284 15.4209 15.3646C15.1884 15.6009 15.071 15.8772 15.0687 16.1937C15.0665 16.5103 15.1839 16.787 15.4209 17.024C15.6579 17.261 15.9342 17.378 16.25 17.375ZM15.4062 13.775H17.0938C17.0938 13.2312 17.15 12.833 17.2625 12.5802C17.375 12.3275 17.6375 11.9945 18.05 11.5813C18.6125 11.0188 18.9875 10.5642 19.175 10.2177C19.3625 9.87125 19.4563 9.46325 19.4563 8.99375C19.4563 8.15 19.1607 7.46112 18.5697 6.92712C17.9788 6.39312 17.2055 6.12575 16.25 6.125C15.4812 6.125 14.8111 6.34062 14.2396 6.77187C13.6681 7.20312 13.2695 7.775 13.0437 8.4875L14.5625 9.10625C14.7312 8.6375 14.9611 8.28612 15.2521 8.05212C15.5431 7.81812 15.8757 7.70075 16.25 7.7C16.7 7.7 17.0656 7.82675 17.3469 8.08025C17.6281 8.33375 17.7688 8.67575 17.7688 9.10625C17.7688 9.36875 17.6937 9.61737 17.5437 9.85212C17.3937 10.0869 17.1312 10.382 16.7562 10.7375C16.1375 11.2812 15.758 11.708 15.6178 12.0177C15.4775 12.3275 15.407 12.9132 15.4062 13.775ZM9.5 20.75C8.88125 20.75 8.35175 20.5299 7.9115 20.0896C7.47125 19.6494 7.25075 19.1195 7.25 18.5V5C7.25 4.38125 7.4705 3.85175 7.9115 3.4115C8.3525 2.97125 8.882 2.75075 9.5 2.75H23C23.6187 2.75 24.1486 2.9705 24.5896 3.4115C25.0306 3.8525 25.2507 4.382 25.25 5V18.5C25.25 19.1187 25.0299 19.6486 24.5896 20.0896C24.1494 20.5306 23.6195 20.7507 23 20.75H9.5ZM5 25.25C4.38125 25.25 3.85175 25.0299 3.4115 24.5896C2.97125 24.1494 2.75075 23.6195 2.75 23V7.25H5V23H20.75V25.25H5Z" fill="#0B539B"/>
</svg>
