<svg width="20" height="21" viewBox="0 0 20 21" fill="none" xmlns="http://www.w3.org/2000/svg">
<path d="M19 19.5L15.5 16M15 8.5C15 9.41925 14.8189 10.3295 14.4672 11.1788C14.1154 12.0281 13.5998 12.7997 12.9497 13.4497C12.2997 14.0998 11.5281 14.6154 10.6788 14.9672C9.82951 15.3189 8.91925 15.5 8 15.5C7.08075 15.5 6.1705 15.3189 5.32122 14.9672C4.47194 14.6154 3.70026 14.0998 3.05025 13.4497C2.40024 12.7997 1.88463 12.0281 1.53284 11.1788C1.18106 10.3295 1 9.41925 1 8.5C1 6.64348 1.7375 4.86301 3.05025 3.55025C4.36301 2.2375 6.14348 1.5 8 1.5C9.85652 1.5 11.637 2.2375 12.9497 3.55025C14.2625 4.86301 15 6.64348 15 8.5Z" stroke="#0B539B" stroke-width="2" stroke-linecap="round"/>
</svg>
