<svg width="103" height="103" viewBox="0 0 103 103" fill="none" xmlns="http://www.w3.org/2000/svg">
<path d="M51.5 6.4375C42.5875 6.4375 33.8751 9.08037 26.4646 14.0319C19.0541 18.9834 13.2784 26.0212 9.8677 34.2553C6.45702 42.4894 5.56464 51.55 7.30338 60.2913C9.04213 69.0325 13.3339 77.0619 19.636 83.364C25.9381 89.6661 33.9675 93.9579 42.7088 95.6966C51.45 97.4354 60.5106 96.543 68.7447 93.1323C76.9788 89.7216 84.0166 83.9459 88.9681 76.5354C93.9197 69.1249 96.5625 60.4125 96.5625 51.5C96.5625 39.5487 91.8149 28.0869 83.364 19.636C74.9132 11.1851 63.4513 6.4375 51.5 6.4375ZM75.4701 54.3808L36.8451 73.6933C36.3542 73.9386 35.8088 74.0543 35.2606 74.0294C34.7125 74.0046 34.1798 73.8401 33.7131 73.5514C33.2464 73.2628 32.8613 72.8596 32.5943 72.3803C32.3273 71.9009 32.1873 71.3612 32.1875 70.8125V32.1875C32.1878 31.6391 32.3282 31.0998 32.5955 30.6208C32.8627 30.1419 33.2479 29.7392 33.7145 29.4509C34.1811 29.1627 34.7136 28.9984 35.2614 28.9737C35.8093 28.9491 36.3544 29.0648 36.8451 29.3099L75.4701 48.6224C76.004 48.89 76.4529 49.3009 76.7667 49.8091C77.0804 50.3173 77.2466 50.9028 77.2466 51.5C77.2466 52.0972 77.0804 52.6827 76.7667 53.1909C76.4529 53.6991 76.004 54.11 75.4701 54.3776" fill="white"/>
</svg>
